<svg aria-hidden="true" style="position: absolute; width: 0; height: 0; overflow: hidden;" version="1.1" xmlns="http://www.w3.org/2000/svg" xmlns:xlink="http://www.w3.org/1999/xlink">
<defs>
<symbol id="icon-pals" viewBox="0 0 38 32">
<path d="M18.584 18.558c0.217 3.692 3.417 4.163 6.4 7.265 4.414 4.435 7.965 3.118 8.568-0.081 0.57-3.073-2.533-5.267-2.738-8.552s2.712-6.255 1.822-9.189c-0.891-2.934-4.567-3.4-8.476 1.99-2.639 3.719-5.681 4.906-5.575 8.568z"></path>
<path d="M11.909 9.457c2.499 1.699 5.473 1.093 6.531-0.778s-0.221-5.151-2.751-6.732c-2.499-1.699-5.473-1.093-6.531 0.778-1.027 1.752 0.252 5.033 2.751 6.732z"></path>
<path d="M5.731 18.931c2.947 0.132 5.628-1.56 5.957-4.029 0.296-2.343-1.824-4.404-4.87-4.563-2.947-0.132-5.628 1.56-5.957 4.029-0.296 2.343 1.923 4.431 4.87 4.563z"></path>
<path d="M7.133 30.712c2.678 0.049 5.352-1.872 5.719-4.366 0.334-2.367-1.382-5.013-4.149-5.086-2.678-0.049-5.352 1.872-5.719 4.366-0.334 2.367 1.471 5.037 4.149 5.086z"></path>
</symbol>
<symbol id="icon-bone" viewBox="0 0 34 32">
<path d="M28.457 7.892c-1.019-2.423-3.494-3.71-5.507-2.863-1.775 0.747-2.615 2.827-2.115 4.98l-10.704 4.502c-1.189-1.864-3.264-2.718-5.039-1.971-2.014 0.847-2.825 3.515-1.805 5.939 0.443 1.052 1.15 1.918 2.028 2.45-0.221 1.031-0.11 2.11 0.332 3.163 1.019 2.424 3.494 3.71 5.507 2.863 1.775-0.747 2.615-2.827 2.115-4.98l10.678-4.491c1.189 1.864 3.264 2.718 5.039 1.971 2.014-0.847 2.825-3.515 1.805-5.939-0.443-1.052-1.15-1.918-2.028-2.45 0.248-1.042 0.137-2.122-0.306-3.174zM27.614 12.337c0.771 0.276 1.424 0.94 1.773 1.769 0.63 1.499 0.133 3.134-1.112 3.658-1.219 0.513-2.708-0.212-3.365-1.699-0.201-0.478-0.667-0.695-1.064-0.528l-11.896 5.004c-0.397 0.167-0.528 0.672-0.367 1.13 0.591 1.478 0.107 3.070-1.139 3.594s-2.762-0.265-3.392-1.763c-0.349-0.829-0.366-1.76-0.024-2.504 0.118-0.237 0.091-0.526-0.017-0.781s-0.321-0.466-0.547-0.558c-0.771-0.276-1.424-0.94-1.773-1.769-0.63-1.499-0.133-3.134 1.112-3.658 1.219-0.513 2.708 0.212 3.365 1.699 0.201 0.478 0.667 0.695 1.064 0.528l11.949-5.026c0.397-0.167 0.528-0.672 0.367-1.13-0.591-1.478-0.107-3.070 1.139-3.594s2.762 0.264 3.392 1.763c0.349 0.829 0.366 1.76 0.024 2.504-0.118 0.237-0.091 0.526 0.017 0.781 0.054 0.277 0.268 0.488 0.494 0.58z"></path>
<path d="M14.262 9.359c0.397-0.167 0.554-0.684 0.353-1.162l-0.952-2.264c-0.201-0.478-0.68-0.727-1.078-0.56s-0.554 0.684-0.353 1.162l0.952 2.264c0.201 0.478 0.68 0.727 1.078 0.56z"></path>
<path d="M17.154 8.968c0.133 0.019 0.226 0.018 0.332-0.027 0.265-0.111 0.449-0.414 0.435-0.746l-0.064-2.375c-0.015-0.481-0.389-0.925-0.827-1.003-0.425-0.046-0.768 0.323-0.779 0.816l0.064 2.375c0.015 0.481 0.389 0.925 0.84 0.96z"></path>
<path d="M10.859 11.128c0.267 0.263 0.572 0.322 0.837 0.211 0.106-0.045 0.199-0.121 0.251-0.218 0.264-0.336 0.208-0.913-0.138-1.293l-1.653-1.707c-0.333-0.348-0.838-0.361-1.128-0.013-0.264 0.336-0.208 0.913 0.138 1.293l1.693 1.727z"></path>
<path d="M19.842 22.625c-0.397 0.167-0.554 0.684-0.353 1.162l0.952 2.264c0.201 0.478 0.68 0.727 1.078 0.56s0.554-0.684 0.353-1.162l-0.952-2.264c-0.201-0.478-0.68-0.727-1.078-0.56z"></path>
<path d="M16.95 23.015c-0.425-0.046-0.768 0.323-0.779 0.816l0.064 2.375c0.015 0.481 0.389 0.925 0.827 1.003 0.133 0.019 0.226 0.018 0.332-0.027 0.265-0.111 0.449-0.414 0.435-0.746l-0.064-2.375c0.011-0.567-0.363-1.011-0.814-1.046z"></path>
<path d="M23.245 20.855c-0.333-0.348-0.838-0.361-1.128-0.013-0.264 0.336-0.208 0.913 0.138 1.293l1.653 1.706c0.267 0.263 0.572 0.322 0.837 0.211 0.106-0.045 0.199-0.121 0.251-0.218 0.264-0.336 0.208-0.913-0.138-1.293l-1.613-1.686z"></path>
</symbol>
</defs>
</svg>
